<svg width="53" height="39" fill="none" xmlns="http://www.w3.org/2000/svg"><path d="M37.26 1.284a3.963 3.963 0 00-.968.225 5.77 5.77 0 00-.953.417c-.478.279-.822.584-1.03.915a6.77 6.77 0 00-.547 1.204 572.728 572.728 0 00-2.655 7.819c-1.186 3.585-2.425 7.31-3.716 11.173h-3.14L18.397 6.1l-5.278 16.937h-3.14a3950.605 3950.605 0 01-3.997-12.008c-.927-2.815-1.707-5.175-2.342-7.08-.198-.578-.422-.995-.672-1.252A5.66 5.66 0 002 1.894a2.913 2.913 0 00-.906-.417A6.585 6.585 0 000 1.252V0h11.821v1.22c-.697.086-1.218.171-1.561.257a4.567 4.567 0 00-.812.24c-.188.086-.302.177-.344.274a.66.66 0 00-.062.256c0 .15.015.295.047.434.041.14.083.3.125.482.25.834.754 2.418 1.514 4.751s1.697 5.228 2.811 8.685L18.583 0h3.31l5.857 17.113c.864-2.75 1.551-4.998 2.061-6.742.52-1.745.958-3.238 1.312-4.48.208-.76.375-1.396.5-1.91.125-.513.187-.958.187-1.332 0-.225-.104-.418-.312-.578-.198-.16-.469-.3-.812-.418a5.85 5.85 0 00-1.14-.224 26.697 26.697 0 00-1.203-.145V0h8.917v1.284z" fill="#EFEFF5"/><path fill-rule="evenodd" clip-rule="evenodd" d="M41.765 8.57c-1.53-1.251-.189-2.372 1.013-2.537 1.386-.189 4.102.829 2.764 2.482-.705.871-2.862.802-3.78.052l.003.003zm-.788-2.741c-.952 1.177-.84 2.447.06 3.614.154.203.655.509.793.774.24.465.283 1.27-.1 1.797-.2.274-.585.478-.805.702.17.238.27 1.013.258 1.314-.063 1.75-1.238 1.998-1.549 2.383-.218.27.666 1.483-.29 2.663-.83 1.026-2.252.83-3.296.42-.508-.202-.8-.316-.945.303 1.816 1.484 2.488 2.688 1.722 4.662-.18.46-.141.84.295.77.045-.007 1.504-1.163 2.458.617.14.262.151.473.31.684.418.042.556-.244.841-.705.42-.683.23-.195.347-1.197.024-.22.05-.374.08-.59.442-3.292 2.96-3.534 3.248-3.889.689-.85 1.645-3.243 1.96-4.258.676-2.161.993-3.907 1.194-6.059.167-1.79.416-1.718-.706-2.924a12.942 12.942 0 01-.775-.906 7.854 7.854 0 01-.625-.92c-1.01-1.793-.506-.818-1.546-.526-.193.055-.277.057-.478.1-.796.175-1.85.422-2.456 1.172l.005-.001z" fill="#D45F93"/><path fill-rule="evenodd" clip-rule="evenodd" d="M33.437 23.768c-1.327 1.64-2.252 2.578-4.008 3.688-1.69 1.066-3.393 1.892-5.27 2.34-.306.073-.601.165-.913.21l-.921.138c-1.608.259-2.082.117-3.555.066-.076-.002-.094-.006-.14-.005 1.157.945 4.522 1.794 6.094 1.893 1.35.087 1.965.082 3.336-.054 1.26-.122 2.668-.473 3.872-.872.757-.25 2.463-.975 3.146-1.383.206-.127.4-.236.626-.373.42-.247.796-.48 1.247-.8.455-.316 2.09-1.553 2.456-1.986-.74-1.554-1.916-.68-2.298-.643-.58.056-1.186-.433-1.253-1.023-.042-.357.038-.368.194-.689.558-1.138.043-2.93-1.011-3.791-.398-.325-.163.446-.563 1.484a7.133 7.133 0 01-1.042 1.798l.003.002z" fill="#D45F93"/></svg>